<mxfile host="app.diagrams.net" modified="2023-05-20T21:38:32.386Z" agent="Mozilla/5.0 (X11; Linux x86_64) AppleWebKit/537.36 (KHTML, like Gecko) Chrome/113.0.0.0 Safari/537.36" version="21.3.2" etag="FA_j3-rMgQ97g7XQhyv_" type="github">
  <diagram name="Page-1" id="h9gKt4Pjex3tQCb5EKAY">
    <mxGraphModel>
      <root>
        <mxCell id="0" />
        <mxCell id="1" parent="0" />
      </root>
    </mxGraphModel>
  </diagram>
</mxfile>
